<svg width="52" height="50" viewBox="0 0 52 50" fill="none" xmlns="http://www.w3.org/2000/svg">
<path d="M19.9676 24.056L21.3356 14H27.3596L24.5516 32H17.0156L15.6956 25.376H15.3596L14.0636 32H6.5516L3.7196 14H9.7436L11.0876 24.056H11.2556L13.3436 14H17.7356L19.7996 24.056H19.9676Z" fill="#FB4652"/>
<path d="M46.232 32H40.808L36.416 25.616C36.336 25.504 36.272 25.336 36.224 25.112C36.176 24.888 36.144 24.592 36.128 24.224H36.008V32H30.248V14H35.672L40.064 20.384C40.144 20.496 40.208 20.664 40.256 20.888C40.304 21.112 40.336 21.408 40.352 21.776H40.472V14H46.232V32Z" fill="#FDFDFD"/>
</svg>
